# xmcd CD database file
#
# Track frame offsets:
#	150
#	14914
#	27648
#	43331
#	53546
#	68146
#	79160
#	98459
#	114316
#	139087
#	162632
#	178461
#
# Disc length: 2593 seconds
#
# Revision: 0
# Processed by: cddbd v1.5.2PL0 Copyright (c) Steve Scherf et al.
# Submitted via: CDex 1.51
#
DISCID=aa0a1f0c
DTITLE=Tone Kings - Rough Edges
DYEAR=2007
DGENRE=Blues
TTITLE0=Big Chief From New Orleans
TTITLE1=Bad Case of the Blues
TTITLE2=River Keeps Rising
TTITLE3=Let it Rock
TTITLE4=Red Horse
TTITLE5=Walking Blues
TTITLE6=Walking Blues
TTITLE7=Denomination Blues
TTITLE8=T for Texas
TTITLE9=Stranger Blues
TTITLE10=I'm Just Tired
TTITLE11=Midnight Blues
EXTD=YEAR: 2007
EXTT0=
EXTT1=
EXTT2=
EXTT3=
EXTT4=
EXTT5=
EXTT6=
EXTT7=
EXTT8=
EXTT9=
EXTT10=
EXTT11=
PLAYORDER=
